# xmcd
#
# Track frame offsets:
#	150
#	25227
#	48676
#	69424
#	79152
#	99265
#	118100
#	137866
#	153603
#	167979
#	184979
#	199759
#	217832
#	231944
#	249583
#	266491
#	283346
#	303741
#	318791
#	334682
#
# Disc length: 4679 seconds
#
# Revision: 2
# Processed by: cddbd v1.5.2PL0 Copyright (c) Steve Scherf et al.
# Submitted via: audiograbber 1.83.01
#
DISCID=2c124514
DTITLE=Nesbo (Nesbø), Jo - Teschner, Uve - Durst (Fall für Harry Hole) - Durst
DYEAR=2017
DGENRE=Hörbuch
TTITLE0=076
TTITLE1=077
TTITLE2=078
TTITLE3=079
TTITLE4=080
TTITLE5=081
TTITLE6=082
TTITLE7=083
TTITLE8=084
TTITLE9=085
TTITLE10=086
TTITLE11=087
TTITLE12=088
TTITLE13=089
TTITLE14=090
TTITLE15=091
TTITLE16=092
TTITLE17=093
TTITLE18=094
TTITLE19=095
EXTD=
EXTT0=
EXTT1=
EXTT2=
EXTT3=
EXTT4=
EXTT5=
EXTT6=
EXTT7=
EXTT8=
EXTT9=
EXTT10=
EXTT11=
EXTT12=
EXTT13=
EXTT14=
EXTT15=
EXTT16=
EXTT17=
EXTT18=
EXTT19=
PLAYORDER=
